<?xml version="1.0" encoding="UTF-8"?>
<svg width="50px" height="50px" viewBox="0 0 50 50" version="1.1" xmlns="http://www.w3.org/2000/svg" xmlns:xlink="http://www.w3.org/1999/xlink">
    <title>左下 (Stroke)</title>
    <g id="页面-1" stroke="none" stroke-width="1" fill="none" fill-rule="evenodd">
        <g id="左下-(Stroke)" fill="#2D5FFF">
            <path d="M48.9993997,48.993504 C48.9999997,48.992904 48.9999997,48.991904 48.9999997,48.989604 C48.9999997,48.987204 48.9999997,48.986204 48.9993997,48.985704 C48.9989997,48.984804 48.9982997,48.983504 48.9968997,48.982204 C48.9955997,48.980904 48.9943997,48.980204 48.9934997,48.979804 C48.9928997,48.979504 48.9918997,48.979204 48.9895997,48.979204 L2.83332973,48.979204 C2.54549973,48.979204 2.27724973,48.912804 2.03829973,48.795304 C2.28217973,48.927204 2.55321973,49.000004 2.83332973,49.000004 L48.9895997,49.000004 C48.9918997,49.000004 48.9928997,48.999604 48.9934997,48.999404 C48.9943997,48.999004 48.9955997,48.998304 48.9968997,48.996904 C48.9982997,48.995604 48.9989997,48.994404 48.9993997,48.993504 Z M50,48.989604 C50,49.547604 49.5475997,50 48.9895997,50 L2.83332973,50 C1.22729973,50 0,48.590404 0,46.947904 L0,0.966664 C0,0.432788 0.432796733,0 0.966671733,0 C1.50054973,0 1.93333973,0.432792 1.93333973,0.966664 L1.93332973,46.947904 C1.93332973,47.560604 2.37750973,47.979204 2.83332973,47.979204 L48.9895997,47.979204 C49.5475997,47.979204 50,48.431504 50,48.989604 Z" id="形状"></path>
        </g>
    </g>
</svg>