<?xml version="1.0" encoding="UTF-8"?>
<svg width="50px" height="50px" viewBox="0 0 50 50" version="1.1" xmlns="http://www.w3.org/2000/svg" xmlns:xlink="http://www.w3.org/1999/xlink">
    <title>右下 (Stroke)</title>
    <g id="页面-1" stroke="none" stroke-width="1" fill="none" fill-rule="evenodd">
        <g id="右下-(Stroke)" transform="translate(0.000000, 0.000000)" fill="#E6E8EC">
            <path d="M48.9934994,1.00061 C48.9928994,1 48.9918994,1 48.9895994,1 C48.9871994,1 48.9861994,1 48.9856994,1.00061 C48.9847994,1.00099 48.9834994,1.00175 48.9821994,1.00305 C48.9808994,1.00436 48.9801994,1.00563 48.9797994,1.00652 C48.9794994,1.00707 48.9791994,1.00806 48.9791994,1.01042 L48.9791994,47.1667 C48.9791994,47.4545 48.9127994,47.7227 48.7952994,47.9617 C48.9271994,47.7178 48.9999994,47.4468 48.9999994,47.1667 L48.9999994,1.01042 C48.9999994,1.00806 48.9995994,1.00707 48.9993994,1.00652 C48.9989994,1.00563 48.9982994,1.00436 48.9968994,1.00305 C48.9955994,1.00175 48.9943994,1.00099 48.9934994,1.00061 Z M48.9895994,0 C49.5475994,0 50,0.45238 50,1.01042 L50,47.1667 C50,48.7727 48.5903994,50 46.9478994,50 L0.966663415,50 C0.432788415,50 0,49.5672 0,49.0333 C0,48.4995 0.432792415,48.0667 0.966667415,48.0667 L46.9478994,48.0667 C47.5605994,48.0667 47.9791994,47.6225 47.9791994,47.1667 L47.9791994,1.01042 C47.9791994,0.452379 48.4314994,0 48.9895994,0 Z" id="形状"></path>
        </g>
    </g>
</svg>