<?xml version="1.0" encoding="UTF-8"?>
<svg width="50px" height="50px" viewBox="0 0 50 50" version="1.1" xmlns="http://www.w3.org/2000/svg" xmlns:xlink="http://www.w3.org/1999/xlink">
    <title>左上 (Stroke)</title>
    <g id="页面-1" stroke="none" stroke-width="1" fill="none" fill-rule="evenodd">
        <g id="左上-(Stroke)" fill="#2D5FFF">
            <path d="M1.006522,48.9994021 C1.007072,49.0000021 1.008062,49.0000021 1.010422,49.0000021 C1.012782,49.0000021 1.013772,49.0000021 1.014322,48.9994021 C1.015202,48.9990021 1.016482,48.9983021 1.017782,48.9969021 C1.019092,48.9956021 1.019852,48.9944021 1.020222,48.9935021 C1.020452,48.9929021 1.020832,48.9919021 1.020832,48.9896021 L1.020832,2.83333214 C1.020832,2.54550214 1.087182,2.27725214 1.204702,2.03830214 C1.072832,2.28218214 1.000002,2.55321214 1.000002,2.83333214 L1.000002,48.9896021 C1.000002,48.9919021 1.000382,48.9929021 1.000612,48.9935021 C1.000992,48.9944021 1.001752,48.9956021 1.003052,48.9969021 C1.004362,48.9983021 1.005632,48.9990021 1.006522,48.9994021 Z M1.010422,50 C0.45238,50 0,49.5476021 0,48.9896021 L0,2.83333214 C0,1.22730214 1.409582,0 3.052082,0 L49.033302,0 C49.567202,0 50,0.432792143 50,0.966667143 C50,1.50054214 49.567202,1.93333214 49.033302,1.93333214 L3.052082,1.93333214 C2.439422,1.93333214 2.020832,2.37751214 2.020832,2.83333214 L2.020832,48.9896021 C2.020832,49.5476021 1.568452,50 1.010422,50 Z" id="形状"></path>
        </g>
    </g>
</svg>