<?xml version="1.0" encoding="UTF-8"?>
<svg width="50px" height="50px" viewBox="0 0 50 50" version="1.1" xmlns="http://www.w3.org/2000/svg" xmlns:xlink="http://www.w3.org/1999/xlink">
    <title>右上 (Stroke)</title>
    <g id="页面-1" stroke="none" stroke-width="1" fill="none" fill-rule="evenodd">
        <g id="右上-(Stroke)" fill="#E6E8EC">
            <path d="M1.00061,1.00652 C1,1.00707 1,1.00806 1,1.01042 C1,1.01278 1,1.01377 1.00061,1.01432 C1.00099,1.0152 1.00175,1.01648 1.00305,1.01778 C1.00436,1.01909 1.00563,1.01985 1.00652,1.02022 C1.00707,1.02045 1.00806,1.02083 1.01042,1.02083 L47.1667,1.02083 C47.4545,1.02083 47.7227,1.08719 47.9617,1.2047 C47.7178,1.07283 47.4468,1 47.1667,1 L1.01042,1 C1.00806,1 1.00707,1.00038 1.00652,1.00061 C1.00563,1.00099 1.00436,1.00175 1.00305,1.00305 C1.00175,1.00436 1.00099,1.00563 1.00061,1.00652 Z M0,1.01042 C0,0.452378 0.45238,0 1.01042,0 L47.1667,0 C48.7727,0 50,1.40958 50,3.05208 L50,49.0333 C50,49.5672 49.5672,50 49.0333,50 C48.4995,50 48.0667,49.5672 48.0667,49.0333 L48.0667,3.05208 C48.0667,2.43942 47.6225,2.02083 47.1667,2.02083 L1.01042,2.02083 C0.452379,2.02083 0,1.56845 0,1.01042 Z" id="形状"></path>
        </g>
    </g>
</svg>